<svg xmlns="http://www.w3.org/2000/svg" viewBox="0 0 127.7 94.22"><title>icon-become2</title><g id="Слой_2" data-name="Слой 2"><g id="icons"><circle cx="59.53" cy="50.89" r="43.33" style="fill:#fff"/><path d="M120.94,1H59.53a5.76,5.76,0,0,0-5.76,5.76V45.14a5.76,5.76,0,0,0,5.76,5.76h61.41a5.76,5.76,0,0,0,5.76-5.76V6.76A5.76,5.76,0,0,0,120.94,1Z" style="fill:#fff"/><path d="M53.77,22.11V6.76A5.76,5.76,0,0,1,59.53,1h61.41a5.76,5.76,0,0,1,5.76,5.76V45.14a5.76,5.76,0,0,1-5.76,5.76H59.53a5.76,5.76,0,0,1-5.76-5.76V27.87" style="fill:none;stroke:#4e342e;stroke-linecap:round;stroke-linejoin:round;stroke-width:2px"/><path d="M120.94,6.76,97,27.29a10.38,10.38,0,0,1-6.75,2.5h0a10.38,10.38,0,0,1-6.75-2.5l-24-20.53" style="fill:none;stroke:#4e342e;stroke-linecap:round;stroke-linejoin:round;stroke-width:2px"/><line x1="101.75" y1="24.03" x2="122.86" y2="45.14" style="fill:none;stroke:#4e342e;stroke-linecap:round;stroke-linejoin:round;stroke-width:2px"/><line x1="78.72" y1="24.03" x2="69.13" y2="33.62" style="fill:none;stroke:#4e342e;stroke-linecap:round;stroke-linejoin:round;stroke-width:2px"/><rect x="7.72" y="39.38" width="72.93" height="49.9" rx="5.76" ry="5.76" style="fill:#c83c1b;stroke:#4e342e;stroke-linecap:round;stroke-linejoin:round;stroke-width:2px"/><path d="M73,45.14l-22,20.53a10.38,10.38,0,0,1-6.75,2.5h0a10.38,10.38,0,0,1-6.75-2.5l-24-20.53" style="fill:none;stroke:#4e342e;stroke-linecap:round;stroke-linejoin:round;stroke-width:2px"/><line x1="55.69" y1="62.41" x2="76.8" y2="83.52" style="fill:none;stroke:#4e342e;stroke-linecap:round;stroke-linejoin:round;stroke-width:2px"/><line x1="33.62" y1="63.37" x2="13.47" y2="83.52" style="fill:none;stroke:#4e342e;stroke-linecap:round;stroke-linejoin:round;stroke-width:2px"/><line x1="61.45" y1="22.11" x2="38.42" y2="22.11" style="fill:none;stroke:#4e342e;stroke-linecap:round;stroke-linejoin:round;stroke-width:2px"/><line x1="37.46" y1="5.45" x2="16.35" y2="5.45" style="fill:none;stroke:#4e342e;stroke-linecap:round;stroke-linejoin:round;stroke-width:2px"/><line x1="72.97" y1="66.25" x2="95.99" y2="66.25" style="fill:none;stroke:#4e342e;stroke-linecap:round;stroke-linejoin:round;stroke-width:2px"/><line x1="88.32" y1="89.28" x2="109.43" y2="89.28" style="fill:none;stroke:#4e342e;stroke-linecap:round;stroke-linejoin:round;stroke-width:2px"/><line x1="12.51" y1="5.45" x2="8.68" y2="5.45" style="fill:none;stroke:#4e342e;stroke-linecap:round;stroke-linejoin:round;stroke-width:2px"/><line x1="4.84" y1="5.45" x2="1" y2="5.45" style="fill:none;stroke:#4e342e;stroke-linecap:round;stroke-linejoin:round;stroke-width:2px"/><line x1="34.58" y1="22.11" x2="30.75" y2="22.11" style="fill:none;stroke:#4e342e;stroke-linecap:round;stroke-linejoin:round;stroke-width:2px"/><line x1="113.27" y1="89.28" x2="117.1" y2="89.28" style="fill:none;stroke:#4e342e;stroke-linecap:round;stroke-linejoin:round;stroke-width:2px"/><line x1="120.94" y1="89.28" x2="124.78" y2="89.28" style="fill:none;stroke:#4e342e;stroke-linecap:round;stroke-linejoin:round;stroke-width:2px"/><line x1="100.94" y1="66.25" x2="104.78" y2="66.25" style="fill:none;stroke:#4e342e;stroke-linecap:round;stroke-linejoin:round;stroke-width:2px"/></g></g></svg>