<svg xmlns="http://www.w3.org/2000/svg" viewBox="0 0 128.66 107.47"><title>icon-become44</title><g id="Слой_2" data-name="Слой 2"><g id="icons"><circle cx="61.45" cy="53.73" r="53.73" style="fill:#fff"/><rect x="19.23" y="13.43" width="99.79" height="74.84" style="fill:#fff"/><line x1="109.43" y1="88.28" x2="53.77" y2="88.28" style="fill:none;stroke:#4e342e;stroke-linecap:round;stroke-linejoin:round;stroke-width:2px"/><polyline points="119.02 82.52 119.02 88.28 113.27 88.28" style="fill:none;stroke:#4e342e;stroke-linecap:round;stroke-linejoin:round;stroke-width:2px"/><polyline points="113.27 13.43 119.02 13.43 119.02 19.19" style="fill:none;stroke:#4e342e;stroke-linecap:round;stroke-linejoin:round;stroke-width:2px"/><line x1="28.83" y1="13.43" x2="109.43" y2="13.43" style="fill:none;stroke:#4e342e;stroke-linecap:round;stroke-linejoin:round;stroke-width:2px"/><polyline points="19.23 19.19 19.23 13.43 24.99 13.43" style="fill:none;stroke:#4e342e;stroke-linecap:round;stroke-linejoin:round;stroke-width:2px"/><polyline points="26.91 88.28 19.23 88.28 19.23 23.03" style="fill:none;stroke:#4e342e;stroke-linecap:round;stroke-linejoin:round;stroke-width:2px"/><path d="M28.82,46.26c-1-1.05-1.91-2.11-1.91-3.63,0-3,3.89-5.46,3.89-8.51s-5.7-10.18-3.16-12.35C30,19.43,37.72,25.12,41,25.12s5.93-4,9.23-4,5.93,4,9.23,4,5.93-4,9.23-4,5.93,4,9.23,4,5.93-4,9.23-4,5.93,4,9.23,4,12.29-5.68,14.35-3.34c2.21,2.17-3.16,9.31-3.16,12.36s3.79,5.47,3.79,8.52-3.79,5.16-3.79,8.2,3.79,5.16,3.79,8.2-3.79,5.47-3.79,8.52,5.37,10.37,3.16,12.4c-2.05,2.19-11-3.13-14.35-3.13s-5.93,3.75-9.23,3.75-5.93-3.75-9.23-3.75S72,80.56,68.69,80.56s-5.93-3.79-9.23-3.79H57.61" style="fill:none;stroke:#4e342e;stroke-linecap:round;stroke-linejoin:round;stroke-width:2px"/><polygon points="32.66 71.01 32.66 99.79 40.34 94.03 48.02 99.79 48.02 71.01 32.66 71.01" style="fill:#fff"/><polyline points="48.02 71.01 48.02 99.79 40.34 94.03 32.66 99.79 32.66 71.01" style="fill:#fff;stroke:#4e342e;stroke-linecap:round;stroke-linejoin:round;stroke-width:2px"/><circle cx="40.34" cy="59.49" r="13.43" style="fill:#c83c1b;stroke:#4e342e;stroke-linecap:round;stroke-linejoin:round;stroke-width:2px"/><line x1="61.45" y1="42.22" x2="92.16" y2="42.22" style="fill:none;stroke:#4e342e;stroke-linecap:round;stroke-linejoin:round;stroke-width:2px"/><line x1="61.45" y1="49.9" x2="92.16" y2="49.9" style="fill:none;stroke:#4e342e;stroke-linecap:round;stroke-linejoin:round;stroke-width:2px"/><line x1="61.45" y1="57.57" x2="82.56" y2="57.57" style="fill:none;stroke:#4e342e;stroke-linecap:round;stroke-linejoin:round;stroke-width:2px"/><line x1="103.67" y1="99.79" x2="69.13" y2="99.79" style="fill:none;stroke:#4e342e;stroke-linecap:round;stroke-linejoin:round;stroke-width:2px"/><line x1="48.98" y1="5.14" x2="24.03" y2="5.14" style="fill:none;stroke:#4e342e;stroke-linecap:round;stroke-linejoin:round;stroke-width:2px"/><line x1="20.19" y1="5.14" x2="16.35" y2="5.14" style="fill:none;stroke:#4e342e;stroke-linecap:round;stroke-linejoin:round;stroke-width:2px"/><line x1="12.51" y1="5.14" x2="8.68" y2="5.14" style="fill:none;stroke:#4e342e;stroke-linecap:round;stroke-linejoin:round;stroke-width:2px"/><line x1="4.84" y1="5.14" x2="1" y2="5.14" style="fill:none;stroke:#4e342e;stroke-linecap:round;stroke-linejoin:round;stroke-width:2px"/><line x1="110.39" y1="93.72" x2="127.66" y2="93.72" style="fill:none;stroke:#4e342e;stroke-linecap:round;stroke-linejoin:round;stroke-width:2px"/><line x1="106.55" y1="93.72" x2="102.71" y2="93.72" style="fill:none;stroke:#4e342e;stroke-linecap:round;stroke-linejoin:round;stroke-width:2px"/></g></g></svg>