<svg xmlns="http://www.w3.org/2000/svg" viewBox="0 0 120.98 86.36"><title>icon-become3</title><g id="Слой_2" data-name="Слой 2"><g id="icons"><circle cx="56.13" cy="43.18" r="43.18" style="fill:#fff"/><line x1="31.71" y1="25.29" x2="22.11" y2="25.29" style="fill:none;stroke:#4e342e;stroke-linecap:round;stroke-linejoin:round;stroke-width:2px"/><line x1="25.95" y1="32.97" x2="1" y2="32.97" style="fill:none;stroke:#4e342e;stroke-linecap:round;stroke-linejoin:round;stroke-width:2px"/><line x1="80.11" y1="2.11" x2="55.17" y2="2.11" style="fill:none;stroke:#4e342e;stroke-linecap:round;stroke-linejoin:round;stroke-width:2px"/><line x1="89.28" y1="77.11" x2="54.73" y2="77.11" style="fill:none;stroke:#4e342e;stroke-linecap:round;stroke-linejoin:round;stroke-width:2px"/><line x1="14.43" y1="25.29" x2="18.27" y2="25.29" style="fill:none;stroke:#4e342e;stroke-linecap:round;stroke-linejoin:round;stroke-width:2px"/><line x1="51.33" y1="2.11" x2="47.49" y2="2.11" style="fill:none;stroke:#4e342e;stroke-linecap:round;stroke-linejoin:round;stroke-width:2px"/><line x1="43.65" y1="2.11" x2="39.81" y2="2.11" style="fill:none;stroke:#4e342e;stroke-linecap:round;stroke-linejoin:round;stroke-width:2px"/><line x1="35.97" y1="2.11" x2="32.14" y2="2.11" style="fill:none;stroke:#4e342e;stroke-linecap:round;stroke-linejoin:round;stroke-width:2px"/><rect x="33.62" y="13.78" width="86.36" height="49.9" style="fill:#fff"/><polyline points="33.63 46.41 33.63 13.78 119.98 13.78 119.98 63.68 33.63 63.68 33.63 52.16" style="fill:none;stroke:#4e342e;stroke-linecap:round;stroke-linejoin:round;stroke-width:2px"/><path d="M104.63,54.08H49a5.76,5.76,0,0,0-5.76-5.76h0V29.13h0A5.76,5.76,0,0,0,49,23.38h55.65a5.76,5.76,0,0,0,5.76,5.76V48.32h0a5.76,5.76,0,0,0-5.76,5.76Z" style="fill:#c83c1b;stroke:#4e342e;stroke-linecap:round;stroke-linejoin:round;stroke-width:2px"/><line x1="54.73" y1="38.73" x2="58.57" y2="38.73" style="fill:none;stroke:#4e342e;stroke-linecap:round;stroke-linejoin:round;stroke-width:2px"/><line x1="95.04" y1="38.73" x2="98.87" y2="38.73" style="fill:none;stroke:#4e342e;stroke-linecap:round;stroke-linejoin:round;stroke-width:2px"/><ellipse cx="76.81" cy="38.72" rx="8.64" ry="9.59" style="fill:#fff;stroke:#4e342e;stroke-linecap:round;stroke-linejoin:round;stroke-width:2px"/><line x1="39.38" y1="46.4" x2="14.43" y2="46.4" style="fill:none;stroke:#4e342e;stroke-linecap:round;stroke-linejoin:round;stroke-width:2px"/></g></g></svg>