<svg xmlns="http://www.w3.org/2000/svg" viewBox="0 0 119.06 115.23"><title>icon-become4</title><g id="Слой_2" data-name="Слой 2"><g id="icons"><circle cx="54.44" cy="64.33" r="43.33" style="fill:#fff"/><path d="M43.22,12.51V95h-9.6V5.91A4.91,4.91,0,0,1,38.54,1h0a4.69,4.69,0,0,1,3.79,1.93" style="fill:#c83c1b;stroke:#4e342e;stroke-linecap:round;stroke-linejoin:round;stroke-width:2px"/><line x1="16.35" y1="95.04" x2="79.68" y2="95.04" style="fill:none;stroke:#4e342e;stroke-linecap:round;stroke-linejoin:round;stroke-width:2px"/><path d="M101.44,44.34s9.91-12,12.79-20.31c-13,3.68-39.34,2.24-42.22,0V60.49c5,7.12,35.66,4.16,46.06-1.92A173.91,173.91,0,0,1,101.44,44.34Z" style="fill:#c83c1b;stroke:#4e342e;stroke-linecap:round;stroke-linejoin:round;stroke-width:2px"/><polygon points="81.62 16.35 72.01 22.11 72.01 50.9 72.03 58.57 73.89 60.49 83.52 50.9 83.52 48.98 83.57 20.2 81.62 16.35" style="fill:#c83c1b;stroke:#4e342e;stroke-linecap:round;stroke-linejoin:round;stroke-width:2px"/><path d="M83.52,12.9c-9.44-7.36-42.38-7.9-49.9-.38V49c10.6-4.61,33.24-6.19,47.8,0h2.1Z" style="fill:#c83c1b;stroke:#4e342e;stroke-linecap:round;stroke-linejoin:round;stroke-width:2px"/><line x1="43.22" y1="12.51" x2="43.22" y2="41.3" style="fill:none;stroke:#4e342e;stroke-linecap:round;stroke-linejoin:round;stroke-width:2px"/><line x1="83.52" y1="95.04" x2="91.2" y2="95.04" style="fill:none;stroke:#4e342e;stroke-linecap:round;stroke-linejoin:round;stroke-width:2px"/><line x1="95.04" y1="95.04" x2="98.87" y2="95.04" style="fill:none;stroke:#4e342e;stroke-linecap:round;stroke-linejoin:round;stroke-width:2px"/><line x1="12.51" y1="95.04" x2="8.68" y2="95.04" style="fill:none;stroke:#4e342e;stroke-linecap:round;stroke-linejoin:round;stroke-width:2px"/><path d="M29.79,85.44H47.06a3.84,3.84,0,0,1,3.84,3.84V95a0,0,0,0,1,0,0H25.95a0,0,0,0,1,0,0V89.28A3.84,3.84,0,0,1,29.79,85.44Z" style="fill:#fff;stroke:#4e342e;stroke-linecap:round;stroke-linejoin:round;stroke-width:2px"/><line x1="47.06" y1="104.63" x2="72.01" y2="104.63" style="fill:none;stroke:#4e342e;stroke-linecap:round;stroke-linejoin:round;stroke-width:2px"/><line x1="22.11" y1="114.23" x2="58.57" y2="114.23" style="fill:none;stroke:#4e342e;stroke-linecap:round;stroke-linejoin:round;stroke-width:2px"/><line x1="1" y1="104.63" x2="31.71" y2="104.63" style="fill:none;stroke:#4e342e;stroke-linecap:round;stroke-linejoin:round;stroke-width:2px"/></g></g></svg>