<svg xmlns="http://www.w3.org/2000/svg" viewBox="0 0 119.86 107.47"><title>Ресурс 1</title><g id="Слой_2" data-name="Слой 2"><g id="icons"><circle cx="56.65" cy="53.73" r="53.73" style="fill:#fff"/><rect x="18.27" y="26.87" width="99.79" height="55.65" style="fill:#fff"/><polyline points="95.03 26.87 18.27 26.87 18.27 82.52 118.06 82.52 118.06 34.54" style="fill:none;stroke:#4e342e;stroke-linecap:round;stroke-linejoin:round;stroke-width:2px"/><line x1="89.28" y1="72.93" x2="106.55" y2="72.93" style="fill:none;stroke:#4e342e;stroke-linecap:round;stroke-linejoin:round;stroke-width:2px"/><line x1="31.71" y1="40.3" x2="47.06" y2="40.3" style="fill:none;stroke:#4e342e;stroke-linecap:round;stroke-linejoin:round;stroke-width:2px"/><line x1="50.9" y1="49.9" x2="60.49" y2="49.9" style="fill:none;stroke:#4e342e;stroke-linecap:round;stroke-linejoin:round;stroke-width:2px"/><line x1="50.9" y1="40.3" x2="75.84" y2="40.3" style="fill:none;stroke:#4e342e;stroke-linecap:round;stroke-linejoin:round;stroke-width:2px"/><path d="M1,15.35H35.54a9.6,9.6,0,0,1,9.6,9.6v48a9.6,9.6,0,0,0-9.6-9.6H1Z" style="fill:#c83c1b;stroke:#4e342e;stroke-linecap:round;stroke-linejoin:round;stroke-width:2px"/><path d="M35.54,82.52a9.6,9.6,0,0,0,9.6-9.6" style="fill:none;stroke:#4e342e;stroke-linecap:round;stroke-linejoin:round;stroke-width:2px"/><path d="M113.43,31.5,77.76,67.17,64.33,72.93l5.76-13.43,35.67-35.67a3.84,3.84,0,0,1,5.43,0l2.25,2.25A3.84,3.84,0,0,1,113.43,31.5Z" style="fill:#c83c1b;stroke:#4e342e;stroke-linecap:round;stroke-linejoin:round;stroke-width:2px"/><path d="M110.39,23l3.84-3.84a2.71,2.71,0,0,1,3.84,0h0a2.71,2.71,0,0,1,0,3.84l-3.84,3.84" style="fill:#c83c1b;stroke:#4e342e;stroke-linecap:round;stroke-linejoin:round;stroke-width:2px"/><line x1="102.71" y1="26.87" x2="110.39" y2="34.54" style="fill:none;stroke:#4e342e;stroke-linecap:round;stroke-linejoin:round;stroke-width:2px"/><line x1="72.01" y1="57.57" x2="79.68" y2="65.25" style="fill:none;stroke:#4e342e;stroke-linecap:round;stroke-linejoin:round;stroke-width:2px"/><line x1="85.44" y1="72.93" x2="81.6" y2="72.93" style="fill:none;stroke:#4e342e;stroke-linecap:round;stroke-linejoin:round;stroke-width:2px"/><line x1="8.68" y1="95.46" x2="45.14" y2="95.46" style="fill:none;stroke:#4e342e;stroke-linecap:round;stroke-linejoin:round;stroke-width:2px"/><line x1="96.95" y1="7.18" x2="106.55" y2="7.18" style="fill:none;stroke:#4e342e;stroke-linecap:round;stroke-linejoin:round;stroke-width:2px"/><line x1="59.53" y1="7.18" x2="90.24" y2="7.18" style="fill:none;stroke:#4e342e;stroke-linecap:round;stroke-linejoin:round;stroke-width:2px"/><line x1="63.37" y1="100.75" x2="84.48" y2="100.75" style="fill:none;stroke:#4e342e;stroke-linecap:round;stroke-linejoin:round;stroke-width:2px"/><line x1="88.32" y1="100.75" x2="92.16" y2="100.75" style="fill:none;stroke:#4e342e;stroke-linecap:round;stroke-linejoin:round;stroke-width:2px"/><line x1="95.99" y1="100.75" x2="99.83" y2="100.75" style="fill:none;stroke:#4e342e;stroke-linecap:round;stroke-linejoin:round;stroke-width:2px"/></g></g></svg>